<svg width="24" height="24" viewBox="0 0 24 24" fill="none" xmlns="http://www.w3.org/2000/svg">
<path d="M11.9992 12H12.0092M12.9992 12C12.9992 12.5522 12.5515 13 11.9992 13C11.4469 13 10.9992 12.5522 10.9992 12C10.9992 11.4477 11.4469 11 11.9992 11C12.5515 11 12.9992 11.4477 12.9992 12ZM15.5348 15.5355C11.239 19.8313 6.17367 21.7307 4.22105 19.7781C2.26842 17.8255 4.16792 12.7602 8.46369 8.46442C12.7595 4.16865 17.8248 2.26916 19.7774 4.22178C21.73 6.1744 19.8305 11.2397 15.5348 15.5355ZM15.5348 8.46442C19.8305 12.7602 21.73 17.8255 19.7774 19.7781C17.8248 21.7307 12.7595 19.8313 8.46369 15.5355C4.16792 11.2397 2.26842 6.1744 4.22105 4.22178C6.17367 2.26916 11.239 4.16865 15.5348 8.46442Z" stroke="#1F1814" stroke-width="2" stroke-linecap="square"/>
</svg>
