<svg width="24" height="24" viewBox="0 0 24 24" fill="none" xmlns="http://www.w3.org/2000/svg">
<path d="M15.5 13.3544V21L12 19L8.5 21V13.3544M15.5 13.3544L15.8184 12.8184L17.1962 12L17.216 10.3976L18 9L17.216 7.60238L17.1962 6L15.8184 5.18162L15 3.80385L13.3976 3.784L12 3L10.6024 3.784L9 3.80385L8.18162 5.18162L6.80385 6L6.784 7.60238L6 9L6.784 10.3976L6.80385 12L8.18162 12.8184L8.5 13.3544M15.5 13.3544L15 14.1962L13.3976 14.216L12 15L10.6024 14.216L9 14.1962L8.5 13.3544M14 9C14 10.1046 13.1046 11 12 11C10.8954 11 10 10.1046 10 9C10 7.89543 10.8954 7 12 7C13.1046 7 14 7.89543 14 9Z" stroke="#1F1814" stroke-width="2"/>
</svg>
